<svg width="20" height="21" viewBox="0 0 20 21" fill="none" xmlns="http://www.w3.org/2000/svg">
<path d="M17.6931 21H17.5624C2.45258 20.0873 0.307214 6.69577 0.00732409 2.60885C-0.0168399 2.29108 0.0189265 1.97144 0.112574 1.66822C0.206221 1.365 0.355908 1.08417 0.55306 0.841819C0.750211 0.599469 0.990951 0.400363 1.26149 0.255909C1.53202 0.111454 1.82703 0.0244907 2.12962 7.57285e-07H6.36652C6.67453 -0.000312436 6.97553 0.0965278 7.23054 0.277978C7.48554 0.459427 7.6828 0.717126 7.79676 1.01769L8.96556 4.03846C9.0781 4.3321 9.10603 4.65399 9.04588 4.96415C8.98573 5.27431 8.84015 5.55908 8.62723 5.78308L6.98937 7.51962C7.24521 9.04676 7.94147 10.4545 8.98394 11.5524C10.0264 12.6503 11.3648 13.3853 12.818 13.6581L14.4866 11.9215C14.7031 11.7004 14.9767 11.551 15.2735 11.4921C15.5702 11.4332 15.8769 11.4674 16.1552 11.5904L19.0542 12.81C19.336 12.9335 19.5764 13.1423 19.7449 13.4098C19.9133 13.6774 20.0021 13.9916 20 14.3123V18.5769C20 19.2196 19.7569 19.8359 19.3243 20.2903C18.8917 20.7447 18.3049 21 17.6931 21ZM2.31417 1.61539C2.11023 1.61539 1.91464 1.70048 1.77044 1.85195C1.62623 2.00342 1.54522 2.20886 1.54522 2.42308V2.48769C1.89894 7.26923 4.16733 18.5769 17.647 19.3846C17.748 19.3912 17.8493 19.3767 17.945 19.3421C18.0406 19.3074 18.1289 19.2533 18.2046 19.1828C18.2803 19.1122 18.3421 19.0267 18.3862 18.931C18.4304 18.8354 18.4562 18.7315 18.4621 18.6254V14.3123L15.5631 13.0927L13.3563 15.3946L12.9872 15.3462C6.29732 14.4658 5.38996 7.43885 5.38996 7.36615L5.34382 6.97846L7.52763 4.66039L6.37421 1.61539H2.31417Z" fill="#3C377E"/>
</svg>
