<svg width="33" height="33" viewBox="0 0 33 33" fill="none" xmlns="http://www.w3.org/2000/svg">
<ellipse cx="16.4125" cy="16.5" rx="16.4125" ry="16.5" fill="#3C377E"/>
<mask id="mask0_8_170" style="mask-type:alpha" maskUnits="userSpaceOnUse" x="4" y="3" width="26" height="26">
<rect x="4.86292" y="3.66666" width="24.3148" height="24.4444" fill="#D9D9D9"/>
</mask>
<g mask="url(#mask0_8_170)">
<path d="M9.92845 23.0185H11.3468L20.0849 14.2338L18.6666 12.8079L9.92845 21.5926V23.0185ZM24.416 12.7569L20.1103 8.47916L21.5286 7.05324C21.917 6.66281 22.394 6.46759 22.9596 6.46759C23.5253 6.46759 24.0023 6.66281 24.3907 7.05324L25.809 8.47916C26.1974 8.8696 26.4 9.34066 26.4169 9.89236C26.4338 10.4441 26.248 10.9151 25.8597 11.3056L24.416 12.7569ZM22.947 14.2593L12.208 25.0556H7.90222V20.7268L18.6412 9.93055L22.947 14.2593Z" fill="white"/>
</g>
</svg>
